<?xml version="1.0" standalone="no"?>
<!DOCTYPE svg PUBLIC "-//W3C//DTD SVG 20010904//EN"
 "http://www.w3.org/TR/2001/REC-SVG-20010904/DTD/svg10.dtd">
<svg version="1.0" xmlns="http://www.w3.org/2000/svg"
 width="512.000000pt" height="512.000000pt" viewBox="0 0 512.000000 512.000000"
 preserveAspectRatio="xMidYMid meet">

<g transform="translate(0.000000,512.000000) scale(0.100000,-0.100000)"
fill="#000000" stroke="none">
<path d="M3215 5013 c-65 -9 -158 -47 -213 -87 -104 -77 -158 -172 -272 -476
-79 -213 -202 -460 -287 -580 -86 -120 -252 -286 -368 -369 -54 -38 -193 -115
-350 -192 l-260 -129 -6 43 c-13 84 -72 156 -146 176 -63 18 -734 14 -811 -4
-192 -45 -347 -203 -387 -392 -22 -101 -22 -2305 0 -2406 39 -186 193 -347
373 -391 57 -14 122 -16 453 -14 l386 3 40 28 c43 30 78 84 90 139 l8 35 185
-47 c102 -26 291 -75 420 -108 507 -131 524 -133 1338 -139 473 -3 682 -2 729
7 69 12 144 45 202 89 54 41 119 136 141 208 38 122 19 282 -44 374 l-25 36
42 19 c104 47 205 191 227 324 18 105 -1 183 -78 332 -2 4 14 16 35 27 146 74
247 264 230 431 -8 68 -35 146 -72 202 -15 22 -25 41 -23 43 2 1 17 10 35 19
53 26 129 111 162 178 109 224 21 487 -197 595 l-76 38 -628 3 c-424 2 -628 6
-628 13 0 5 17 36 39 67 142 210 241 485 276 765 21 173 21 699 0 782 -61 233
-297 390 -540 358z m193 -234 c68 -33 105 -71 136 -139 20 -43 21 -61 21 -365
0 -346 -6 -412 -55 -600 -48 -189 -136 -369 -267 -548 -104 -143 -113 -158
-113 -194 0 -45 14 -69 50 -88 25 -13 124 -15 731 -15 524 0 712 -3 743 -12
54 -16 128 -90 144 -144 29 -100 -2 -215 -74 -270 -65 -50 -100 -54 -456 -54
l-330 0 -29 -29 c-23 -23 -29 -38 -29 -71 0 -33 6 -48 29 -71 l29 -29 259 0
c142 0 274 -5 294 -10 52 -15 99 -49 133 -98 26 -37 31 -54 34 -117 5 -89 -18
-146 -79 -198 -63 -55 -83 -57 -468 -57 l-351 0 -32 -29 c-27 -24 -33 -36 -33
-71 0 -35 6 -47 33 -71 l32 -29 253 0 c289 0 330 -7 390 -65 50 -49 69 -88 75
-160 8 -109 -59 -214 -157 -243 -26 -8 -152 -12 -391 -12 l-352 0 -34 -34
c-40 -40 -44 -75 -14 -123 28 -47 64 -53 343 -53 201 0 255 -3 285 -16 110
-45 166 -176 127 -294 -22 -65 -87 -134 -142 -150 -27 -8 -232 -10 -738 -7
-762 4 -753 3 -1041 67 -77 16 -240 57 -364 90 -123 34 -278 74 -345 91 -66
16 -137 35 -157 40 l-38 10 0 1170 0 1169 283 139 c377 184 484 252 649 409
222 212 378 472 538 898 83 221 131 316 182 356 81 67 196 77 296 27z m-2158
-2985 l0 -1405 -352 3 c-347 3 -354 3 -406 27 -67 30 -145 114 -166 179 -15
43 -16 168 -14 1218 l3 1169 27 51 c33 62 104 127 161 148 34 12 110 15 395
15 l352 1 0 -1406z"/>
</g>
</svg>
