<?xml version="1.0" standalone="no"?>
<!DOCTYPE svg PUBLIC "-//W3C//DTD SVG 20010904//EN"
 "http://www.w3.org/TR/2001/REC-SVG-20010904/DTD/svg10.dtd">
<svg version="1.0" xmlns="http://www.w3.org/2000/svg"
 width="512.000000pt" height="512.000000pt" viewBox="0 0 512.000000 512.000000"
 preserveAspectRatio="xMidYMid meet">

<g transform="translate(0.000000,512.000000) scale(0.100000,-0.100000)"
fill="#000000" stroke="none">
<path d="M0 3310 l0 -1680 625 0 625 0 0 140 0 141 88 -3 89 -3 454 -526 c250
-289 460 -533 468 -542 7 -10 34 -126 58 -259 48 -267 65 -313 137 -374 65
-56 120 -69 291 -69 173 0 225 10 342 66 150 71 268 216 313 382 20 74 22 97
17 232 -9 232 -32 319 -183 707 -57 147 -104 272 -104 277 0 8 204 11 663 11
581 0 670 2 718 16 88 26 150 63 215 128 106 106 162 252 150 393 -5 66 -38
174 -66 219 -11 17 -4 28 62 94 165 165 203 374 105 580 -41 86 -118 167 -224
235 -1 0 9 29 23 64 37 91 48 176 34 263 -23 152 -127 303 -254 369 l-64 33
18 41 c114 266 -30 582 -310 678 l-65 22 -1185 3 -1185 3 -303 -115 -302 -114
0 134 0 134 -625 0 -625 0 0 -1680z m950 0 l0 -1380 -325 0 -325 0 0 1380 0
1380 325 0 325 0 0 -1380z m3235 1329 c170 -43 208 -270 62 -367 l-41 -27
-410 -5 -411 -5 -3 -147 -3 -147 538 -3 538 -3 47 -28 c118 -69 138 -223 41
-321 -55 -56 -58 -56 -493 -56 l-400 0 0 -150 0 -149 508 -3 c501 -3 507 -3
548 -25 81 -43 121 -117 111 -206 -8 -61 -43 -116 -94 -148 l-38 -24 -505 -5
-505 -5 -3 -147 -3 -147 423 -3 c416 -3 424 -3 465 -25 67 -36 113 -113 113
-187 0 -54 -44 -132 -91 -163 l-43 -28 -878 -3 c-649 -2 -878 -5 -878 -14 0
-6 81 -216 179 -467 98 -251 189 -487 200 -525 49 -161 66 -380 35 -470 -22
-64 -100 -148 -166 -176 -40 -17 -78 -23 -169 -27 l-118 -6 -6 24 c-3 13 -25
133 -49 266 l-44 242 -539 623 -539 623 -157 3 -157 3 2 1096 3 1097 325 122
325 123 1118 1 c784 0 1131 -3 1162 -11z"/>
</g>
</svg>
